<?xml version="1.0" standalone="no"?>
<!DOCTYPE svg PUBLIC "-//W3C//DTD SVG 20010904//EN"
 "http://www.w3.org/TR/2001/REC-SVG-20010904/DTD/svg10.dtd">
<svg version="1.0" xmlns="http://www.w3.org/2000/svg"
 width="743.000000pt" height="218.000000pt" viewBox="0 0 743.000000 218.000000"
 preserveAspectRatio="xMidYMid meet">

<g transform="translate(0.000000,218.000000) scale(0.100000,-0.100000)"
fill="#001f2d" stroke="none">
<path d="M1974 1656 c-3 -9 -13 -16 -21 -16 -22 0 -83 -65 -83 -88 0 -57 40
-81 97 -57 72 30 128 15 162 -45 35 -62 26 -130 -25 -197 l-24 -32 -55 20
c-101 35 -197 22 -343 -48 -67 -32 -77 -35 -110 -25 -20 6 -47 14 -59 17 -13
4 -23 12 -23 19 0 8 -6 19 -14 26 -8 6 -13 17 -10 24 3 7 -13 32 -34 57 -22
24 -47 60 -57 79 -42 83 -114 147 -150 134 -9 -4 -30 -30 -46 -59 -26 -46 -34
-53 -69 -59 -22 -3 -56 -14 -75 -23 -33 -16 -38 -16 -88 0 -53 17 -128 23
-140 11 -9 -10 28 -101 57 -139 21 -27 26 -45 26 -88 0 -30 7 -74 15 -97 24
-67 20 -86 -17 -94 -39 -8 -31 -18 16 -18 44 0 45 -8 5 -37 -38 -28 -32 -38
10 -17 37 20 60 20 85 1 15 -11 16 -15 5 -19 -8 -2 -34 -9 -59 -16 -55 -15
-110 -67 -110 -105 0 -16 11 -38 29 -56 33 -32 63 -36 133 -18 34 9 55 8 99
-3 49 -14 59 -14 85 0 l29 15 -25 -28 c-14 -15 -46 -38 -72 -51 -75 -38 -98
-91 -62 -142 15 -22 15 -24 -2 -37 -47 -34 -10 -36 666 -36 364 0 665 3 668 5
2 3 2 12 -1 21 -5 10 -20 15 -51 15 l-44 0 16 33 c19 37 28 145 17 212 -5 34
-17 58 -49 94 -43 48 -43 50 -48 137 -4 62 -12 105 -28 142 l-23 54 47 40 c48
42 93 113 77 123 -6 3 -4 20 5 40 21 52 18 121 -6 142 -11 10 -20 23 -20 31 0
41 -97 163 -107 134 -3 -9 -13 -6 -35 9 -40 29 -155 40 -164 15z m-696 -213
c22 -31 48 -110 39 -119 -9 -9 -47 16 -47 31 0 18 -5 19 -29 3 -10 -6 -26 -8
-34 -5 -15 6 -15 10 -2 48 16 45 32 69 46 69 4 0 16 -12 27 -27z m-248 -209
c0 -8 11 -25 24 -37 16 -15 25 -37 28 -70 11 -99 72 -121 184 -66 43 22 72 30
91 26 15 -3 43 1 60 8 39 16 41 10 11 -22 -18 -19 -20 -26 -9 -32 9 -6 5 -14
-18 -30 -17 -13 -29 -27 -25 -32 8 -13 -119 -69 -186 -81 -57 -11 -130 -4
-130 11 0 5 18 8 41 7 30 0 45 5 55 18 17 24 12 31 -14 17 -43 -23 -101 -6
-73 22 18 18 13 27 -18 27 -35 0 -46 -13 -26 -30 17 -14 20 -40 5 -40 -5 0
-17 11 -25 24 -13 19 -14 29 -6 45 16 30 13 67 -9 111 -22 43 -26 70 -10 70 6
0 10 9 10 21 0 28 19 61 31 54 5 -4 9 -13 9 -21z m174 -133 c8 -12 -3 -41 -15
-41 -5 0 -9 6 -9 14 0 8 -9 21 -21 29 -15 11 -17 16 -7 20 14 5 43 -7 52 -22z
m-220 -37 c9 -23 4 -24 -16 -2 -14 14 -15 18 -4 18 8 0 17 -7 20 -16z m324
-199 c15 -34 15 -40 -4 -81 -19 -40 -36 -43 -62 -9 -11 13 -22 21 -26 17 -9
-9 -26 18 -26 43 0 15 12 24 48 36 26 10 50 17 53 18 3 1 11 -10 17 -24z
m-281 -37 c23 -22 34 -86 12 -73 -6 4 -21 -3 -34 -15 -25 -24 -55 -21 -55 5 0
22 -18 19 -25 -5 -9 -27 -25 -25 -25 3 0 13 -5 28 -10 33 -14 14 18 42 67 60
49 17 43 17 70 -8z m895 -127 c38 -38 67 -55 128 -71 77 -20 90 -49 45 -94
-16 -16 -25 -36 -25 -56 l0 -30 -80 0 c-44 0 -80 2 -80 5 0 2 18 28 40 57 41
54 61 109 42 116 -6 2 -30 17 -53 34 l-42 30 -51 -17 c-51 -18 -232 -32 -261
-22 -13 5 -12 11 6 42 l21 35 76 0 c54 0 90 6 120 20 38 17 42 22 43 57 l1 38
19 -56 c11 -31 34 -70 51 -88z m368 -91 c0 -114 -27 -160 -94 -160 -21 0 -26
5 -26 25 0 14 -4 25 -10 25 -5 0 -12 -11 -16 -25 -7 -28 -6 -27 -28 -19 -25 9
-19 33 15 65 26 24 30 35 27 63 -4 33 -2 35 50 56 29 13 56 29 59 36 13 35 23
7 23 -66z m-1008 23 c52 -56 52 -67 5 -105 -74 -61 -117 -75 -117 -38 0 26
-20 26 -27 0 -9 -35 -38 -20 -36 18 1 28 -2 32 -19 26 -39 -12 -1 32 55 64 29
16 59 37 66 46 20 23 44 20 73 -11z m406 -22 c46 1 88 -3 94 -9 18 -18 4 -45
-37 -66 -28 -15 -43 -30 -50 -53 l-9 -33 -220 0 -220 0 34 29 c19 16 81 52
137 80 55 27 104 54 107 59 4 6 20 7 43 1 21 -5 75 -8 121 -8z"/>
<path d="M2975 1329 c-132 -17 -205 -109 -205 -260 0 -166 87 -261 239 -263
54 0 79 5 124 28 58 28 68 44 42 66 -12 10 -22 9 -52 -6 -55 -27 -162 -26
-199 2 -44 32 -63 65 -74 124 -28 150 60 261 195 244 50 -6 83 -27 87 -56 2
-15 10 -23 23 -23 17 0 20 8 23 51 3 50 2 52 -32 68 -50 23 -113 33 -171 25z"/>
<path d="M3495 1096 c-75 -197 -94 -236 -112 -241 -14 -3 -23 -13 -23 -25 0
-18 7 -20 75 -20 69 0 75 2 75 20 0 11 -6 23 -14 26 -12 5 -12 12 1 50 l15 45
111 -3 110 -3 14 -39 c9 -27 10 -43 3 -50 -5 -5 -10 -18 -10 -28 0 -16 9 -18
70 -18 64 0 70 2 70 20 0 12 -9 24 -21 28 -21 8 -24 14 -153 350 l-48 122 -36
0 -37 0 -90 -234z m200 -58 l7 -27 -73 0 c-40 0 -76 2 -80 5 -7 4 49 177 67
206 7 11 64 -123 79 -184z"/>
<path d="M4010 1275 c0 -48 2 -55 20 -55 13 0 22 9 26 25 6 24 10 26 58 23
l51 -3 3 -202 c2 -195 2 -202 -18 -208 -11 -3 -20 -15 -20 -26 0 -17 8 -19 75
-19 67 0 75 2 75 19 0 11 -9 23 -20 26 -20 6 -20 13 -18 208 l3 202 51 3 c48
3 52 1 58 -23 4 -16 13 -25 26 -25 18 0 20 7 20 55 l0 55 -195 0 -195 0 0 -55z"/>
<path d="M4580 1310 c0 -10 9 -24 20 -30 19 -10 20 -21 20 -215 0 -195 -1
-204 -20 -210 -11 -3 -20 -15 -20 -26 0 -17 8 -19 75 -19 67 0 75 2 75 19 0
11 -9 23 -20 26 -19 6 -21 14 -18 98 l3 92 85 5 c83 5 85 6 85 30 0 25 -2 25
-87 28 l-88 3 0 79 0 80 105 0 c103 0 105 0 111 -25 4 -16 13 -25 25 -25 16 0
19 8 19 55 l0 55 -185 0 c-177 0 -185 -1 -185 -20z"/>
<path d="M5130 1310 c0 -10 9 -24 20 -30 19 -10 20 -21 20 -214 0 -195 -1
-204 -20 -209 -12 -3 -20 -14 -20 -26 0 -21 4 -21 191 -21 l190 0 -3 48 c-3
39 -6 47 -25 50 -14 2 -23 -3 -28 -17 -6 -19 -14 -21 -111 -21 l-104 0 0 200
c0 189 1 200 20 210 11 6 20 20 20 30 0 18 -7 20 -75 20 -68 0 -75 -2 -75 -20z"/>
<path d="M5783 1306 c-85 -40 -123 -113 -124 -242 -2 -163 87 -256 242 -257
149 0 239 96 239 257 0 120 -41 199 -124 241 -68 34 -160 35 -233 1z m202 -64
c46 -27 75 -93 75 -174 0 -81 -16 -124 -59 -161 -112 -94 -271 1 -271 163 0
152 132 241 255 172z"/>
<path d="M6290 1309 c0 -12 8 -23 19 -26 17 -4 50 -105 143 -440 8 -30 12 -33
48 -33 38 0 40 2 50 43 37 136 92 332 95 335 2 2 9 -16 15 -39 7 -24 29 -108
51 -186 21 -79 39 -145 39 -148 0 -3 18 -5 40 -5 37 0 40 2 49 38 76 278 122
418 140 431 12 7 21 22 21 32 0 17 -8 19 -70 19 -56 0 -72 -3 -77 -16 -4 -10
1 -22 12 -30 18 -13 17 -21 -25 -174 -23 -88 -46 -160 -50 -160 -3 0 -24 64
-45 143 -68 254 -61 237 -100 237 -39 0 -33 16 -100 -237 -21 -79 -41 -143
-45 -143 -3 0 -26 72 -50 160 -41 153 -42 161 -25 174 11 8 16 20 12 30 -5 13
-21 16 -77 16 -64 0 -70 -2 -70 -21z"/>
<path d="M690 698 c-71 -49 -90 -148 -41 -217 l22 -31 -46 0 c-32 0 -47 -5
-52 -15 -3 -9 -3 -18 0 -21 6 -7 388 -6 395 0 2 3 2 12 -1 21 -4 10 -19 15
-45 15 l-39 0 23 47 c30 58 30 87 2 143 -41 78 -147 106 -218 58z m106 -42
c30 -30 34 -40 34 -89 0 -44 -5 -59 -25 -81 -13 -14 -31 -26 -40 -26 -14 0
-12 6 9 31 48 57 46 110 -5 161 -32 32 -35 38 -18 38 6 0 26 -15 45 -34z m94
-85 c0 -21 -6 -45 -12 -54 -11 -15 -13 -8 -13 40 0 32 -4 67 -8 78 -7 17 -6
16 12 -4 13 -14 21 -37 21 -60z"/>
</g>
</svg>
