<svg xmlns="http://www.w3.org/2000/svg" viewBox="0 0 1486 1192" width="1486" height="1192">
  <path d="M 1084 698 L 1084 706 L 1085 706 L 1086 707 L 1091 707 L 1092 708 L 1093 708 L 1094 709 L 1094 711 L 1095 712 L 1095 714 L 1096 715 L 1096 718 L 1097 719 L 1097 721 L 1098 722 L 1098 725 L 1099 726 L 1099 728 L 1100 729 L 1100 732 L 1101 733 L 1101 735 L 1102 736 L 1102 739 L 1103 740 L 1103 742 L 1104 743 L 1104 746 L 1105 747 L 1105 749 L 1106 750 L 1106 753 L 1107 754 L 1107 756 L 1108 757 L 1108 760 L 1109 761 L 1109 763 L 1110 764 L 1110 767 L 1111 768 L 1111 770 L 1112 771 L 1112 774 L 1113 775 L 1113 777 L 1114 778 L 1114 781 L 1115 782 L 1115 784 L 1116 785 L 1116 788 L 1117 789 L 1117 791 L 1118 792 L 1118 795 L 1119 796 L 1119 798 L 1120 799 L 1120 802 L 1121 803 L 1121 805 L 1122 806 L 1122 809 L 1123 810 L 1123 812 L 1124 813 L 1124 816 L 1125 817 L 1125 819 L 1126 820 L 1126 823 L 1127 824 L 1143 824 L 1143 822 L 1144 821 L 1144 818 L 1145 817 L 1145 814 L 1146 813 L 1146 811 L 1147 810 L 1147 807 L 1148 806 L 1148 803 L 1149 802 L 1149 800 L 1150 799 L 1150 796 L 1151 795 L 1151 792 L 1152 791 L 1152 788 L 1153 787 L 1153 785 L 1154 784 L 1154 781 L 1155 780 L 1155 777 L 1156 776 L 1156 774 L 1157 773 L 1157 770 L 1158 769 L 1158 766 L 1159 765 L 1159 763 L 1160 762 L 1160 759 L 1161 758 L 1161 755 L 1162 754 L 1162 752 L 1163 751 L 1163 748 L 1164 747 L 1164 744 L 1165 743 L 1165 741 L 1166 740 L 1166 737 L 1167 736 L 1167 733 L 1168 732 L 1168 730 L 1169 729 L 1169 726 L 1170 725 L 1171 725 L 1172 726 L 1172 727 L 1173 728 L 1173 731 L 1174 732 L 1174 735 L 1175 736 L 1175 738 L 1176 739 L 1176 742 L 1177 743 L 1177 746 L 1178 747 L 1178 749 L 1179 750 L 1179 753 L 1180 754 L 1180 757 L 1181 758 L 1181 760 L 1182 761 L 1182 764 L 1183 765 L 1183 768 L 1184 769 L 1184 772 L 1185 773 L 1185 775 L 1186 776 L 1186 779 L 1187 780 L 1187 783 L 1188 784 L 1188 786 L 1189 787 L 1189 790 L 1190 791 L 1190 794 L 1191 795 L 1191 797 L 1192 798 L 1192 801 L 1193 802 L 1193 805 L 1194 806 L 1194 808 L 1195 809 L 1195 812 L 1196 813 L 1196 816 L 1197 817 L 1197 820 L 1198 821 L 1198 823 L 1199 824 L 1214 824 L 1215 823 L 1215 821 L 1216 820 L 1216 817 L 1217 816 L 1217 814 L 1218 813 L 1218 810 L 1219 809 L 1219 807 L 1220 806 L 1220 803 L 1221 802 L 1221 800 L 1222 799 L 1222 796 L 1223 795 L 1223 793 L 1224 792 L 1224 789 L 1225 788 L 1225 786 L 1226 785 L 1226 782 L 1227 781 L 1227 779 L 1228 778 L 1228 775 L 1229 774 L 1229 772 L 1230 771 L 1230 769 L 1231 768 L 1231 765 L 1232 764 L 1232 761 L 1233 760 L 1233 758 L 1234 757 L 1234 754 L 1235 753 L 1235 751 L 1236 750 L 1236 747 L 1237 746 L 1237 744 L 1238 743 L 1238 740 L 1239 739 L 1239 737 L 1240 736 L 1240 733 L 1241 732 L 1241 730 L 1242 729 L 1242 726 L 1243 725 L 1243 723 L 1244 722 L 1244 719 L 1245 718 L 1245 716 L 1246 715 L 1246 712 L 1247 711 L 1247 710 L 1250 707 L 1255 707 L 1256 706 L 1257 706 L 1257 698 L 1223 698 L 1223 705 L 1225 707 L 1229 707 L 1230 708 L 1231 708 L 1232 709 L 1231 710 L 1231 714 L 1230 715 L 1230 717 L 1229 718 L 1229 721 L 1228 722 L 1228 725 L 1227 726 L 1227 728 L 1226 729 L 1226 732 L 1225 733 L 1225 736 L 1224 737 L 1224 739 L 1223 740 L 1223 743 L 1222 744 L 1222 747 L 1221 748 L 1221 750 L 1220 751 L 1220 754 L 1219 755 L 1219 758 L 1218 759 L 1218 761 L 1217 762 L 1217 765 L 1216 766 L 1216 768 L 1215 769 L 1215 773 L 1214 774 L 1214 776 L 1213 777 L 1213 780 L 1212 781 L 1212 784 L 1211 785 L 1211 787 L 1210 788 L 1210 791 L 1209 792 L 1209 795 L 1208 796 L 1208 798 L 1207 799 L 1205 797 L 1205 796 L 1204 795 L 1204 792 L 1203 791 L 1203 788 L 1202 787 L 1202 784 L 1201 783 L 1201 781 L 1200 780 L 1200 777 L 1199 776 L 1199 774 L 1198 773 L 1198 769 L 1197 768 L 1197 766 L 1196 765 L 1196 762 L 1195 761 L 1195 759 L 1194 758 L 1194 755 L 1193 754 L 1193 751 L 1192 750 L 1192 748 L 1191 747 L 1191 744 L 1190 743 L 1190 740 L 1189 739 L 1189 737 L 1188 736 L 1188 733 L 1187 732 L 1187 729 L 1186 728 L 1186 726 L 1185 725 L 1185 722 L 1184 721 L 1184 718 L 1183 717 L 1183 715 L 1182 714 L 1182 710 L 1181 709 L 1181 707 L 1180 706 L 1180 703 L 1179 702 L 1179 700 L 1178 699 L 1178 698 L 1163 698 L 1163 700 L 1162 701 L 1162 703 L 1161 704 L 1161 707 L 1160 708 L 1160 710 L 1159 711 L 1159 714 L 1158 715 L 1158 718 L 1157 719 L 1157 722 L 1156 723 L 1156 725 L 1155 726 L 1155 729 L 1154 730 L 1154 733 L 1153 734 L 1153 736 L 1152 737 L 1152 740 L 1151 741 L 1151 744 L 1150 745 L 1150 747 L 1149 748 L 1149 751 L 1148 752 L 1148 755 L 1147 756 L 1147 758 L 1146 759 L 1146 762 L 1145 763 L 1145 765 L 1144 766 L 1144 769 L 1143 770 L 1143 773 L 1142 774 L 1142 777 L 1141 778 L 1141 781 L 1140 782 L 1140 784 L 1139 785 L 1139 788 L 1138 789 L 1138 792 L 1137 793 L 1137 795 L 1136 796 L 1136 798 L 1135 799 L 1133 797 L 1133 795 L 1132 794 L 1132 791 L 1131 790 L 1131 787 L 1130 786 L 1130 784 L 1129 783 L 1129 780 L 1128 779 L 1128 776 L 1127 775 L 1127 773 L 1126 772 L 1126 769 L 1125 768 L 1125 765 L 1124 764 L 1124 762 L 1123 761 L 1123 758 L 1122 757 L 1122 754 L 1121 753 L 1121 751 L 1120 750 L 1120 747 L 1119 746 L 1119 743 L 1118 742 L 1118 740 L 1117 739 L 1117 736 L 1116 735 L 1116 732 L 1115 731 L 1115 729 L 1114 728 L 1114 725 L 1113 724 L 1113 721 L 1112 720 L 1112 717 L 1111 716 L 1111 714 L 1110 713 L 1110 709 L 1112 707 L 1116 707 L 1117 706 L 1118 706 L 1118 698 Z  M 798 698 L 798 706 L 799 706 L 800 707 L 804 707 L 805 708 L 806 708 L 807 709 L 807 812 L 805 814 L 803 814 L 802 815 L 798 815 L 798 824 L 887 824 L 887 800 L 880 800 L 879 801 L 879 803 L 878 804 L 878 810 L 876 812 L 824 812 L 822 810 L 822 709 L 823 708 L 824 708 L 825 707 L 829 707 L 830 706 L 831 706 L 831 698 Z  M 661 698 L 661 706 L 662 706 L 663 707 L 667 707 L 668 708 L 669 708 L 670 709 L 670 813 L 669 814 L 667 814 L 666 815 L 662 815 L 661 816 L 661 824 L 695 824 L 695 816 L 694 815 L 690 815 L 689 814 L 687 814 L 686 813 L 686 765 L 687 764 L 729 764 L 729 753 L 728 752 L 687 752 L 686 751 L 686 711 L 687 710 L 740 710 L 741 711 L 741 715 L 742 716 L 742 721 L 751 721 L 751 698 Z  M 520 698 L 520 721 L 528 721 L 528 719 L 529 718 L 529 712 L 531 710 L 558 710 L 559 711 L 559 813 L 558 814 L 556 814 L 555 815 L 551 815 L 550 816 L 550 824 L 584 824 L 584 816 L 583 815 L 579 815 L 578 814 L 576 814 L 575 813 L 575 711 L 576 710 L 603 710 L 605 712 L 605 717 L 606 718 L 606 721 L 614 721 L 614 712 L 615 711 L 615 709 L 614 708 L 614 698 Z  M 415 698 L 414 699 L 414 701 L 413 702 L 413 703 L 412 704 L 412 706 L 411 707 L 411 709 L 410 710 L 410 711 L 409 712 L 409 714 L 408 715 L 408 716 L 407 717 L 407 719 L 406 720 L 406 722 L 405 723 L 405 724 L 404 725 L 404 727 L 403 728 L 403 729 L 402 730 L 402 732 L 401 733 L 401 735 L 400 736 L 400 737 L 399 738 L 399 740 L 398 741 L 398 742 L 397 743 L 397 745 L 396 746 L 396 747 L 395 748 L 395 750 L 394 751 L 394 753 L 393 754 L 393 755 L 392 756 L 392 758 L 391 759 L 391 760 L 390 761 L 390 763 L 389 764 L 389 766 L 388 767 L 388 768 L 387 769 L 387 770 L 386 771 L 386 773 L 385 774 L 385 776 L 384 777 L 384 779 L 383 780 L 383 781 L 382 782 L 382 784 L 381 785 L 381 786 L 380 787 L 380 789 L 379 790 L 379 791 L 378 792 L 378 794 L 377 795 L 377 797 L 376 798 L 376 799 L 375 800 L 375 802 L 374 803 L 374 804 L 373 805 L 373 807 L 372 808 L 372 810 L 371 811 L 371 812 L 369 814 L 366 814 L 365 815 L 360 815 L 360 824 L 393 824 L 393 815 L 390 815 L 389 814 L 387 814 L 386 813 L 386 812 L 387 811 L 387 809 L 388 808 L 388 807 L 389 806 L 389 804 L 390 803 L 390 801 L 391 800 L 391 799 L 392 798 L 392 796 L 393 795 L 393 793 L 394 792 L 394 791 L 395 790 L 395 789 L 396 788 L 450 788 L 451 789 L 451 790 L 452 791 L 452 792 L 453 793 L 453 795 L 454 796 L 454 798 L 455 799 L 455 801 L 456 802 L 456 803 L 457 804 L 457 806 L 458 807 L 458 809 L 459 810 L 459 811 L 460 812 L 460 813 L 459 814 L 457 814 L 456 815 L 453 815 L 453 816 L 452 817 L 452 824 L 486 824 L 486 816 L 485 815 L 481 815 L 480 814 L 477 814 L 475 812 L 475 811 L 474 810 L 474 809 L 473 808 L 473 806 L 472 805 L 472 803 L 471 802 L 471 801 L 470 800 L 470 798 L 469 797 L 469 796 L 468 795 L 468 793 L 467 792 L 467 790 L 466 789 L 466 788 L 465 787 L 465 785 L 464 784 L 464 783 L 463 782 L 463 780 L 462 779 L 462 777 L 461 776 L 461 775 L 460 774 L 460 772 L 459 771 L 459 769 L 458 768 L 458 767 L 457 766 L 457 764 L 456 763 L 456 762 L 455 761 L 455 759 L 454 758 L 454 757 L 453 756 L 453 754 L 452 753 L 452 751 L 451 750 L 451 749 L 450 748 L 450 746 L 449 745 L 449 744 L 448 743 L 448 741 L 447 740 L 447 738 L 446 737 L 446 736 L 445 735 L 445 733 L 444 732 L 444 730 L 443 729 L 443 728 L 442 727 L 442 725 L 441 724 L 441 723 L 440 722 L 440 720 L 439 719 L 439 718 L 438 717 L 438 715 L 437 714 L 437 713 L 436 712 L 436 710 L 435 709 L 435 707 L 434 706 L 434 705 L 433 704 L 433 702 L 432 701 L 432 700 L 431 699 L 431 698 Z  M 423 716 L 425 718 L 425 720 L 426 721 L 426 723 L 427 724 L 427 725 L 428 726 L 428 728 L 429 729 L 429 731 L 430 732 L 430 733 L 431 734 L 431 736 L 432 737 L 432 739 L 433 740 L 433 741 L 434 742 L 434 744 L 435 745 L 435 747 L 436 748 L 436 749 L 437 750 L 437 752 L 438 753 L 438 755 L 439 756 L 439 757 L 440 758 L 440 760 L 441 761 L 441 763 L 442 764 L 442 766 L 443 767 L 443 769 L 444 770 L 444 771 L 445 772 L 445 775 L 444 776 L 402 776 L 400 774 L 401 773 L 401 772 L 402 771 L 402 769 L 403 768 L 403 766 L 404 765 L 404 764 L 405 763 L 405 761 L 406 760 L 406 758 L 407 757 L 407 756 L 408 755 L 408 753 L 409 752 L 409 750 L 410 749 L 410 747 L 411 746 L 411 745 L 412 744 L 412 742 L 413 741 L 413 739 L 414 738 L 414 737 L 415 736 L 415 734 L 416 733 L 416 731 L 417 730 L 417 729 L 418 728 L 418 726 L 419 725 L 419 723 L 420 722 L 420 721 L 421 720 L 421 718 Z  M 977 697 L 976 698 L 971 698 L 970 699 L 967 699 L 966 700 L 964 700 L 963 701 L 961 701 L 960 702 L 959 702 L 958 703 L 957 703 L 956 704 L 955 704 L 953 706 L 952 706 L 950 708 L 949 708 L 940 717 L 940 718 L 938 720 L 938 721 L 936 723 L 936 724 L 935 725 L 935 726 L 934 727 L 934 728 L 933 729 L 933 730 L 932 731 L 932 733 L 931 734 L 931 736 L 930 737 L 930 740 L 929 741 L 929 745 L 928 746 L 928 755 L 927 756 L 927 763 L 928 764 L 928 775 L 929 776 L 929 779 L 930 780 L 930 784 L 931 785 L 931 787 L 932 788 L 932 789 L 933 790 L 933 792 L 934 793 L 934 794 L 935 795 L 935 796 L 936 797 L 936 798 L 938 800 L 938 801 L 939 802 L 939 803 L 945 809 L 945 810 L 946 810 L 950 814 L 951 814 L 953 816 L 954 816 L 956 818 L 957 818 L 958 819 L 959 819 L 960 820 L 961 820 L 962 821 L 964 821 L 965 822 L 967 822 L 968 823 L 971 823 L 972 824 L 978 824 L 979 825 L 994 825 L 995 824 L 1000 824 L 1001 823 L 1004 823 L 1005 822 L 1007 822 L 1008 821 L 1010 821 L 1011 820 L 1012 820 L 1013 819 L 1015 819 L 1017 817 L 1018 817 L 1019 816 L 1020 816 L 1023 813 L 1024 813 L 1032 805 L 1032 804 L 1034 802 L 1034 801 L 1036 799 L 1036 798 L 1037 797 L 1037 796 L 1038 795 L 1038 794 L 1039 793 L 1039 792 L 1040 791 L 1040 789 L 1041 788 L 1041 786 L 1042 785 L 1042 782 L 1043 781 L 1043 778 L 1044 777 L 1044 770 L 1045 769 L 1045 755 L 1044 754 L 1044 746 L 1043 745 L 1043 741 L 1042 740 L 1042 737 L 1041 736 L 1041 734 L 1040 733 L 1040 732 L 1039 731 L 1039 729 L 1038 728 L 1038 727 L 1037 726 L 1037 725 L 1036 724 L 1036 723 L 1034 721 L 1034 720 L 1032 718 L 1032 717 L 1027 712 L 1027 711 L 1026 711 L 1024 709 L 1023 709 L 1019 705 L 1018 705 L 1017 704 L 1016 704 L 1015 703 L 1014 703 L 1013 702 L 1012 702 L 1011 701 L 1009 701 L 1008 700 L 1006 700 L 1005 699 L 1002 699 L 1001 698 L 996 698 L 995 697 Z  M 984 711 L 985 710 L 987 710 L 988 711 L 996 711 L 997 712 L 1000 712 L 1001 713 L 1002 713 L 1003 714 L 1004 714 L 1005 715 L 1006 715 L 1007 716 L 1008 716 L 1009 717 L 1010 717 L 1019 726 L 1019 727 L 1022 730 L 1022 731 L 1023 732 L 1023 733 L 1024 734 L 1024 735 L 1025 736 L 1025 738 L 1026 739 L 1026 741 L 1027 742 L 1027 745 L 1028 746 L 1028 750 L 1029 751 L 1029 771 L 1028 772 L 1028 775 L 1027 776 L 1027 780 L 1026 781 L 1026 783 L 1025 784 L 1025 785 L 1024 786 L 1024 788 L 1023 789 L 1023 790 L 1021 792 L 1021 793 L 1019 795 L 1019 796 L 1011 804 L 1010 804 L 1008 806 L 1007 806 L 1006 807 L 1005 807 L 1004 808 L 1002 808 L 1001 809 L 999 809 L 998 810 L 995 810 L 994 811 L 978 811 L 977 810 L 974 810 L 973 809 L 971 809 L 970 808 L 969 808 L 968 807 L 967 807 L 966 806 L 965 806 L 964 805 L 963 805 L 958 800 L 957 800 L 954 797 L 954 796 L 952 794 L 952 793 L 950 791 L 950 790 L 949 789 L 949 788 L 948 787 L 948 786 L 947 785 L 947 783 L 946 782 L 946 780 L 945 779 L 945 776 L 944 775 L 944 771 L 943 770 L 943 752 L 944 751 L 944 746 L 945 745 L 945 742 L 946 741 L 946 739 L 947 738 L 947 737 L 948 736 L 948 734 L 949 733 L 949 732 L 950 731 L 950 730 L 953 727 L 953 726 L 961 718 L 962 718 L 964 716 L 965 716 L 966 715 L 967 715 L 968 714 L 969 714 L 970 713 L 972 713 L 973 712 L 976 712 L 977 711 Z  M 263 697 L 262 698 L 257 698 L 256 699 L 253 699 L 252 700 L 250 700 L 249 701 L 247 701 L 246 702 L 245 702 L 244 703 L 243 703 L 242 704 L 241 704 L 240 705 L 239 705 L 237 707 L 236 707 L 233 710 L 232 710 L 229 713 L 229 714 L 225 718 L 225 719 L 223 721 L 223 722 L 221 724 L 221 725 L 220 726 L 220 727 L 219 728 L 219 730 L 218 731 L 218 732 L 217 733 L 217 735 L 216 736 L 216 739 L 215 740 L 215 743 L 214 744 L 214 751 L 213 752 L 213 769 L 214 770 L 214 776 L 215 777 L 215 781 L 216 782 L 216 785 L 217 786 L 217 787 L 218 788 L 218 790 L 219 791 L 219 793 L 220 794 L 220 795 L 222 797 L 222 798 L 223 799 L 223 800 L 224 801 L 224 802 L 229 807 L 229 808 L 232 811 L 233 811 L 237 815 L 238 815 L 240 817 L 241 817 L 242 818 L 243 818 L 244 819 L 245 819 L 246 820 L 247 820 L 248 821 L 250 821 L 251 822 L 253 822 L 254 823 L 257 823 L 258 824 L 264 824 L 265 825 L 279 825 L 280 824 L 286 824 L 287 823 L 290 823 L 291 822 L 294 822 L 295 821 L 297 821 L 298 820 L 299 820 L 300 819 L 301 819 L 302 818 L 303 818 L 304 817 L 305 817 L 306 816 L 307 816 L 309 814 L 310 814 L 314 810 L 315 810 L 315 808 L 314 807 L 314 806 L 308 800 L 305 803 L 304 803 L 303 804 L 302 804 L 301 805 L 300 805 L 299 806 L 298 806 L 297 807 L 296 807 L 295 808 L 293 808 L 292 809 L 288 809 L 287 810 L 284 810 L 283 811 L 264 811 L 263 810 L 260 810 L 259 809 L 257 809 L 256 808 L 254 808 L 253 807 L 252 807 L 250 805 L 249 805 L 247 803 L 246 803 L 239 796 L 239 795 L 237 793 L 237 792 L 235 790 L 235 789 L 234 788 L 234 786 L 233 785 L 233 784 L 232 783 L 232 781 L 231 780 L 231 777 L 230 776 L 230 773 L 229 772 L 229 749 L 230 748 L 230 745 L 231 744 L 231 741 L 232 740 L 232 738 L 233 737 L 233 736 L 234 735 L 234 734 L 235 733 L 235 732 L 236 731 L 236 730 L 238 728 L 238 727 L 248 717 L 249 717 L 251 715 L 253 715 L 254 714 L 255 714 L 256 713 L 258 713 L 259 712 L 261 712 L 262 711 L 270 711 L 271 710 L 272 710 L 273 711 L 283 711 L 284 712 L 288 712 L 289 713 L 291 713 L 292 714 L 294 714 L 295 715 L 296 715 L 298 717 L 299 717 L 300 718 L 301 718 L 302 719 L 302 720 L 303 721 L 303 727 L 304 728 L 304 731 L 312 731 L 312 711 L 313 710 L 310 707 L 309 707 L 307 705 L 306 705 L 305 704 L 304 704 L 303 703 L 302 703 L 301 702 L 300 702 L 299 701 L 297 701 L 296 700 L 294 700 L 293 699 L 289 699 L 288 698 L 283 698 L 282 697 Z  M 559 546 L 558 547 L 554 547 L 553 548 L 552 548 L 551 549 L 550 549 L 549 550 L 548 550 L 547 551 L 546 551 L 545 552 L 544 552 L 540 556 L 539 556 L 539 557 L 536 560 L 536 561 L 534 563 L 534 564 L 533 565 L 533 566 L 532 567 L 532 568 L 531 569 L 531 571 L 530 572 L 530 591 L 531 592 L 531 594 L 532 595 L 532 596 L 533 597 L 533 598 L 534 599 L 534 600 L 535 601 L 535 602 L 538 605 L 538 606 L 539 607 L 540 607 L 544 611 L 543 612 L 521 612 L 520 613 L 518 613 L 518 614 L 517 615 L 517 617 L 518 618 L 518 619 L 519 620 L 610 620 L 612 618 L 612 614 L 611 613 L 610 613 L 609 612 L 588 612 L 587 611 L 589 609 L 590 609 L 591 608 L 591 607 L 595 603 L 595 602 L 597 600 L 597 598 L 598 597 L 598 596 L 599 595 L 599 594 L 600 593 L 600 590 L 601 589 L 601 575 L 600 574 L 600 571 L 599 570 L 599 568 L 598 567 L 598 566 L 597 565 L 597 564 L 595 562 L 595 561 L 592 558 L 592 557 L 591 556 L 590 556 L 586 552 L 585 552 L 584 551 L 583 551 L 581 549 L 579 549 L 578 548 L 576 548 L 575 547 L 573 547 L 572 546 Z  M 578 557 L 579 556 L 580 556 L 582 558 L 583 558 L 589 564 L 589 565 L 591 567 L 591 568 L 592 569 L 592 570 L 593 571 L 593 573 L 594 574 L 594 589 L 593 590 L 593 592 L 592 593 L 592 594 L 591 595 L 591 596 L 590 597 L 590 598 L 584 604 L 583 604 L 582 603 L 583 602 L 583 601 L 584 600 L 584 599 L 585 598 L 585 596 L 586 595 L 586 593 L 587 592 L 587 574 L 586 573 L 586 571 L 585 570 L 585 568 L 584 567 L 584 566 L 583 565 L 583 564 L 582 563 L 582 562 L 579 559 L 579 558 Z  M 556 554 L 557 553 L 563 553 L 564 554 L 565 554 L 567 556 L 568 556 L 575 563 L 575 564 L 577 566 L 577 567 L 578 568 L 578 569 L 579 570 L 579 571 L 580 572 L 580 574 L 581 575 L 581 588 L 580 589 L 580 592 L 579 593 L 579 595 L 578 596 L 578 597 L 577 598 L 577 599 L 567 609 L 566 609 L 565 610 L 563 610 L 562 611 L 561 610 L 560 610 L 559 611 L 558 610 L 555 610 L 554 609 L 554 608 L 555 607 L 556 607 L 557 606 L 559 606 L 560 605 L 561 605 L 567 599 L 567 598 L 569 596 L 569 595 L 570 594 L 570 593 L 571 592 L 571 590 L 572 589 L 572 575 L 571 574 L 571 572 L 570 571 L 570 570 L 569 569 L 569 568 L 567 566 L 567 565 L 562 560 L 561 560 L 560 559 L 559 559 L 558 558 L 557 558 L 556 557 L 554 557 L 553 556 L 553 555 L 554 554 Z  M 862 317 L 861 318 L 857 318 L 856 319 L 854 319 L 853 320 L 852 320 L 852 321 L 854 321 L 855 322 L 857 322 L 859 324 L 858 325 L 852 325 L 851 326 L 848 326 L 847 327 L 845 327 L 843 329 L 842 329 L 841 330 L 840 330 L 833 337 L 833 338 L 832 339 L 832 340 L 831 341 L 831 342 L 830 343 L 830 351 L 831 352 L 831 354 L 833 356 L 833 357 L 835 359 L 836 359 L 837 360 L 838 360 L 839 361 L 847 361 L 848 360 L 850 360 L 851 359 L 852 359 L 853 358 L 854 358 L 855 357 L 856 357 L 857 356 L 858 356 L 859 355 L 862 355 L 863 354 L 874 354 L 875 355 L 876 355 L 877 356 L 879 356 L 880 357 L 881 357 L 883 359 L 884 359 L 892 367 L 892 368 L 893 369 L 893 370 L 894 371 L 894 372 L 895 373 L 895 374 L 896 375 L 896 376 L 897 377 L 897 381 L 898 382 L 898 393 L 897 394 L 897 398 L 896 399 L 896 401 L 895 402 L 895 404 L 894 405 L 894 406 L 893 407 L 893 409 L 891 411 L 891 412 L 890 413 L 890 414 L 888 416 L 888 417 L 885 420 L 885 421 L 880 426 L 877 426 L 876 425 L 875 425 L 874 424 L 873 424 L 872 423 L 870 423 L 869 422 L 868 422 L 867 421 L 866 421 L 865 420 L 863 420 L 862 419 L 859 419 L 858 418 L 854 418 L 853 417 L 829 417 L 828 418 L 823 418 L 822 419 L 818 419 L 817 420 L 815 420 L 814 421 L 812 421 L 811 422 L 808 422 L 807 423 L 806 423 L 805 424 L 803 424 L 802 425 L 801 425 L 800 426 L 798 426 L 797 427 L 796 427 L 795 428 L 794 428 L 793 429 L 792 429 L 791 430 L 790 430 L 789 431 L 787 431 L 786 432 L 785 432 L 784 433 L 783 433 L 782 434 L 781 434 L 780 435 L 779 435 L 778 436 L 777 436 L 776 437 L 775 437 L 774 438 L 773 438 L 772 439 L 771 439 L 770 440 L 768 440 L 767 441 L 766 441 L 765 442 L 762 442 L 760 440 L 759 440 L 758 439 L 757 439 L 756 438 L 755 438 L 754 437 L 752 437 L 751 436 L 744 436 L 743 435 L 738 435 L 737 434 L 737 426 L 729 418 L 730 417 L 732 417 L 732 415 L 729 412 L 729 411 L 725 407 L 725 406 L 722 403 L 721 403 L 714 396 L 714 395 L 713 394 L 713 392 L 712 391 L 712 390 L 711 389 L 711 388 L 710 387 L 710 386 L 709 385 L 709 384 L 708 383 L 708 382 L 707 381 L 707 380 L 705 378 L 705 377 L 703 375 L 703 374 L 701 372 L 701 371 L 697 367 L 697 366 L 691 360 L 690 360 L 686 356 L 685 356 L 683 354 L 682 354 L 681 353 L 679 353 L 678 352 L 676 352 L 675 353 L 674 353 L 666 361 L 666 362 L 665 363 L 665 364 L 664 365 L 664 366 L 663 367 L 663 368 L 662 369 L 662 370 L 661 371 L 661 372 L 660 373 L 660 374 L 659 375 L 659 376 L 658 377 L 658 378 L 656 380 L 655 380 L 654 381 L 648 381 L 647 382 L 643 382 L 642 383 L 640 383 L 639 384 L 636 384 L 635 385 L 634 385 L 633 386 L 631 386 L 630 387 L 629 387 L 628 388 L 627 388 L 626 389 L 625 389 L 624 390 L 623 390 L 622 391 L 616 391 L 615 390 L 614 390 L 613 389 L 610 389 L 609 388 L 607 388 L 606 387 L 604 387 L 603 386 L 600 386 L 599 385 L 597 385 L 596 384 L 592 384 L 591 383 L 586 383 L 585 382 L 575 382 L 574 383 L 574 389 L 575 390 L 575 393 L 576 394 L 576 395 L 577 396 L 577 398 L 578 399 L 578 400 L 579 401 L 579 402 L 580 403 L 580 404 L 581 405 L 581 406 L 582 407 L 582 408 L 584 410 L 584 411 L 585 412 L 585 413 L 587 415 L 587 416 L 589 418 L 589 419 L 592 422 L 592 423 L 594 425 L 594 426 L 595 427 L 595 429 L 594 430 L 594 437 L 593 438 L 593 445 L 594 446 L 594 451 L 595 452 L 595 454 L 596 455 L 596 457 L 597 458 L 597 459 L 598 460 L 598 462 L 599 463 L 599 464 L 600 465 L 600 468 L 601 469 L 601 478 L 602 479 L 602 481 L 603 482 L 601 484 L 593 484 L 592 485 L 590 485 L 589 486 L 588 486 L 587 487 L 586 487 L 585 488 L 606 488 L 608 490 L 608 491 L 606 493 L 605 493 L 604 494 L 603 494 L 602 495 L 601 495 L 599 497 L 598 497 L 591 504 L 591 505 L 592 504 L 593 504 L 594 503 L 595 503 L 596 502 L 597 502 L 598 501 L 599 501 L 600 500 L 601 500 L 602 499 L 603 499 L 604 498 L 605 498 L 606 497 L 607 497 L 608 496 L 610 496 L 611 495 L 613 495 L 614 496 L 615 496 L 619 500 L 620 500 L 621 501 L 622 501 L 623 502 L 624 502 L 625 503 L 626 503 L 627 504 L 628 504 L 630 506 L 629 507 L 621 507 L 620 508 L 614 508 L 613 509 L 610 509 L 609 510 L 607 510 L 606 511 L 604 511 L 603 512 L 602 512 L 601 513 L 600 513 L 599 514 L 598 514 L 596 516 L 595 516 L 593 518 L 592 518 L 586 524 L 586 525 L 584 527 L 584 529 L 583 530 L 583 540 L 584 541 L 584 542 L 585 543 L 585 544 L 586 545 L 586 546 L 590 550 L 591 550 L 593 552 L 594 552 L 595 553 L 617 553 L 618 552 L 619 552 L 620 551 L 621 551 L 622 550 L 623 550 L 624 549 L 630 549 L 631 550 L 635 550 L 636 551 L 639 551 L 640 552 L 643 552 L 644 553 L 647 553 L 648 554 L 651 554 L 652 555 L 661 555 L 663 553 L 664 553 L 666 551 L 667 551 L 669 549 L 670 549 L 671 548 L 672 548 L 673 547 L 674 547 L 675 546 L 676 546 L 677 547 L 677 548 L 671 554 L 670 554 L 666 558 L 665 558 L 660 563 L 659 563 L 656 566 L 655 566 L 654 567 L 653 567 L 652 568 L 651 568 L 650 569 L 649 569 L 648 570 L 647 570 L 646 571 L 645 571 L 644 572 L 643 572 L 642 573 L 641 573 L 639 575 L 638 575 L 635 578 L 635 579 L 633 581 L 633 582 L 632 583 L 632 584 L 631 585 L 631 587 L 630 588 L 630 596 L 631 597 L 631 599 L 632 600 L 632 601 L 634 603 L 634 604 L 640 610 L 640 611 L 639 612 L 634 612 L 633 613 L 632 613 L 631 614 L 631 619 L 632 619 L 633 620 L 952 620 L 953 619 L 953 618 L 954 617 L 954 615 L 951 612 L 930 612 L 929 611 L 929 610 L 931 608 L 931 607 L 933 605 L 933 604 L 934 603 L 934 602 L 935 601 L 935 599 L 936 598 L 936 596 L 937 595 L 937 591 L 938 590 L 938 584 L 939 583 L 939 558 L 938 557 L 938 551 L 937 550 L 937 546 L 936 545 L 936 543 L 935 542 L 935 540 L 934 539 L 934 538 L 933 537 L 933 536 L 927 530 L 926 530 L 919 523 L 919 522 L 917 520 L 917 519 L 916 518 L 916 516 L 915 515 L 915 513 L 914 512 L 914 485 L 913 484 L 913 479 L 912 478 L 912 475 L 911 474 L 911 471 L 910 470 L 910 467 L 909 466 L 909 465 L 908 464 L 908 462 L 907 461 L 907 460 L 906 459 L 906 458 L 905 457 L 905 456 L 904 455 L 904 454 L 903 453 L 903 452 L 902 451 L 902 450 L 901 449 L 905 445 L 906 445 L 908 443 L 909 443 L 912 440 L 913 440 L 924 429 L 924 428 L 927 425 L 927 424 L 929 422 L 929 421 L 931 419 L 931 417 L 932 416 L 932 415 L 933 414 L 933 410 L 932 411 L 931 411 L 930 412 L 929 412 L 928 411 L 928 410 L 929 409 L 929 408 L 930 407 L 930 406 L 931 405 L 931 404 L 932 403 L 932 402 L 933 401 L 933 399 L 934 398 L 934 396 L 935 395 L 935 392 L 936 391 L 936 373 L 935 372 L 935 369 L 934 368 L 934 366 L 933 366 L 932 367 L 932 369 L 930 371 L 929 370 L 929 369 L 928 368 L 928 361 L 927 360 L 927 357 L 926 356 L 926 354 L 925 353 L 925 351 L 924 350 L 924 349 L 923 348 L 923 347 L 922 346 L 922 345 L 921 344 L 921 343 L 919 341 L 919 340 L 916 337 L 916 336 L 909 329 L 908 329 L 906 327 L 905 327 L 903 325 L 901 325 L 901 326 L 902 327 L 902 328 L 903 329 L 903 331 L 902 332 L 901 332 L 895 326 L 894 326 L 892 324 L 891 324 L 890 323 L 889 323 L 888 322 L 887 322 L 886 321 L 885 321 L 884 320 L 882 320 L 881 319 L 879 319 L 878 318 L 872 318 L 871 317 Z  M 747 567 L 750 567 L 751 568 L 754 568 L 755 569 L 759 569 L 760 570 L 765 570 L 766 571 L 794 571 L 795 570 L 805 570 L 812 577 L 812 580 L 811 581 L 811 582 L 810 583 L 810 584 L 808 586 L 808 587 L 807 588 L 806 588 L 805 589 L 802 589 L 801 590 L 799 590 L 798 591 L 796 591 L 795 592 L 794 592 L 790 596 L 790 597 L 789 598 L 789 599 L 788 600 L 788 602 L 787 603 L 787 608 L 788 609 L 788 611 L 786 613 L 737 613 L 736 612 L 735 612 L 734 613 L 679 613 L 677 611 L 680 608 L 681 608 L 684 605 L 685 605 L 689 601 L 690 601 L 694 597 L 695 597 L 698 594 L 699 594 L 701 592 L 702 592 L 704 590 L 706 590 L 707 589 L 708 589 L 709 588 L 710 588 L 711 587 L 712 587 L 713 586 L 714 586 L 715 585 L 717 585 L 718 584 L 719 584 L 720 583 L 721 583 L 722 582 L 724 582 L 725 581 L 726 581 L 727 580 L 728 580 L 729 579 L 730 579 L 731 578 L 732 578 L 733 577 L 734 577 L 735 576 L 736 576 L 738 574 L 739 574 L 741 572 L 742 572 Z  M 676 558 L 678 558 L 679 559 L 680 559 L 681 560 L 682 560 L 684 562 L 685 562 L 691 568 L 691 569 L 694 572 L 694 573 L 696 575 L 696 576 L 697 577 L 697 578 L 698 579 L 698 581 L 699 582 L 699 585 L 695 589 L 694 589 L 693 590 L 692 590 L 689 593 L 688 593 L 682 599 L 681 599 L 678 602 L 677 602 L 675 604 L 674 604 L 673 605 L 672 605 L 671 606 L 670 606 L 669 607 L 661 607 L 659 605 L 659 596 L 657 596 L 656 597 L 656 598 L 655 599 L 655 600 L 654 601 L 654 605 L 652 607 L 648 607 L 647 606 L 646 606 L 643 603 L 643 596 L 644 595 L 644 594 L 645 593 L 645 592 L 646 591 L 646 590 L 647 589 L 645 589 L 644 590 L 643 590 L 640 593 L 640 594 L 639 595 L 638 595 L 636 593 L 636 588 L 637 587 L 637 586 L 639 584 L 639 583 L 641 581 L 642 581 L 644 579 L 645 579 L 646 578 L 647 578 L 648 577 L 649 577 L 650 576 L 651 576 L 652 575 L 653 575 L 654 574 L 655 574 L 656 573 L 657 573 L 659 571 L 660 571 L 662 569 L 663 569 L 666 566 L 667 566 L 671 562 L 672 562 Z  M 929 550 L 931 552 L 931 557 L 932 558 L 932 585 L 931 586 L 931 591 L 930 592 L 930 594 L 929 595 L 929 597 L 928 598 L 928 600 L 927 601 L 927 602 L 920 609 L 919 609 L 918 610 L 917 610 L 916 611 L 913 611 L 912 612 L 904 612 L 903 611 L 902 611 L 900 609 L 900 599 L 899 599 L 897 601 L 897 602 L 896 603 L 896 605 L 895 606 L 895 610 L 894 611 L 887 611 L 885 609 L 885 608 L 884 607 L 884 600 L 885 599 L 885 598 L 891 592 L 892 592 L 893 591 L 894 591 L 895 590 L 896 590 L 897 589 L 897 587 L 898 586 L 898 575 L 897 574 L 897 573 L 896 572 L 896 569 L 897 568 L 901 568 L 902 567 L 904 567 L 905 566 L 907 566 L 908 565 L 910 565 L 911 564 L 912 564 L 913 563 L 914 563 L 915 562 L 916 562 L 919 559 L 920 559 Z  M 615 515 L 616 514 L 622 514 L 624 516 L 625 516 L 629 520 L 629 521 L 631 523 L 631 524 L 632 525 L 632 526 L 633 527 L 633 531 L 634 532 L 634 533 L 633 534 L 633 539 L 630 542 L 629 542 L 628 541 L 628 537 L 627 536 L 626 536 L 626 537 L 623 540 L 623 541 L 620 544 L 619 544 L 617 546 L 615 546 L 614 547 L 610 547 L 607 544 L 607 543 L 606 542 L 606 535 L 603 538 L 603 542 L 602 543 L 602 546 L 601 547 L 597 547 L 593 543 L 593 537 L 594 536 L 594 532 L 592 534 L 591 534 L 590 535 L 589 534 L 589 531 L 591 529 L 591 528 L 597 522 L 598 522 L 600 520 L 601 520 L 602 519 L 603 519 L 604 518 L 605 518 L 606 517 L 608 517 L 609 516 L 611 516 L 612 515 Z  M 825 511 L 826 510 L 827 511 L 827 514 L 828 515 L 828 522 L 829 523 L 829 526 L 830 527 L 830 529 L 831 530 L 831 532 L 832 533 L 832 535 L 833 536 L 833 537 L 834 538 L 834 539 L 835 540 L 835 541 L 837 543 L 837 544 L 840 547 L 840 548 L 846 554 L 847 554 L 850 557 L 851 557 L 853 559 L 854 559 L 855 560 L 856 560 L 857 561 L 858 561 L 859 562 L 860 562 L 861 563 L 863 563 L 864 564 L 866 564 L 867 565 L 869 565 L 870 566 L 874 566 L 875 567 L 877 567 L 878 568 L 882 568 L 883 569 L 884 569 L 885 570 L 886 570 L 890 574 L 890 575 L 891 576 L 891 577 L 892 578 L 892 583 L 891 584 L 891 585 L 890 586 L 889 586 L 888 587 L 887 587 L 885 589 L 884 589 L 881 592 L 881 593 L 880 594 L 880 595 L 879 596 L 879 597 L 878 598 L 878 601 L 877 602 L 877 604 L 878 605 L 878 609 L 879 610 L 879 611 L 877 613 L 854 613 L 853 612 L 852 612 L 851 613 L 836 613 L 834 611 L 837 608 L 838 608 L 840 606 L 840 605 L 844 601 L 844 600 L 847 597 L 847 596 L 850 593 L 850 592 L 852 590 L 852 589 L 853 588 L 853 587 L 854 586 L 854 585 L 856 583 L 856 582 L 857 581 L 857 579 L 858 578 L 858 577 L 859 576 L 859 573 L 860 572 L 860 569 L 859 569 L 858 568 L 857 568 L 856 567 L 855 567 L 854 566 L 853 566 L 852 565 L 851 565 L 850 564 L 849 564 L 847 562 L 846 562 L 844 560 L 843 560 L 835 552 L 834 553 L 832 553 L 831 554 L 830 554 L 829 555 L 828 555 L 827 556 L 826 556 L 825 557 L 824 557 L 823 558 L 821 558 L 820 559 L 818 559 L 817 560 L 815 560 L 814 561 L 811 561 L 810 562 L 806 562 L 805 563 L 800 563 L 799 564 L 791 564 L 790 565 L 778 565 L 777 564 L 765 564 L 764 563 L 760 563 L 759 562 L 756 562 L 754 560 L 759 555 L 759 554 L 761 552 L 761 551 L 763 549 L 763 548 L 764 547 L 764 546 L 765 545 L 765 544 L 767 542 L 769 542 L 770 543 L 792 543 L 793 542 L 798 542 L 799 541 L 803 541 L 804 540 L 807 540 L 808 539 L 810 539 L 811 538 L 813 538 L 814 537 L 815 537 L 816 536 L 818 536 L 819 535 L 820 535 L 821 534 L 822 534 L 824 532 L 824 530 L 823 529 L 823 517 L 824 516 L 824 513 L 825 512 Z  M 689 504 L 690 503 L 692 505 L 692 506 L 693 507 L 693 508 L 694 509 L 694 510 L 695 511 L 695 512 L 696 513 L 696 514 L 698 516 L 698 517 L 699 518 L 699 519 L 698 520 L 698 522 L 697 523 L 697 524 L 696 525 L 696 527 L 695 528 L 695 529 L 694 530 L 694 531 L 692 533 L 692 534 L 690 536 L 690 537 L 686 541 L 684 541 L 677 534 L 677 533 L 675 531 L 675 530 L 673 528 L 673 527 L 672 528 L 672 531 L 670 533 L 669 532 L 669 531 L 668 530 L 668 529 L 667 528 L 667 527 L 666 526 L 666 525 L 665 524 L 665 522 L 664 521 L 664 518 L 663 517 L 663 513 L 665 511 L 669 511 L 670 510 L 673 510 L 674 509 L 677 509 L 678 508 L 679 508 L 680 507 L 682 507 L 683 506 L 684 506 L 685 505 L 687 505 L 688 504 Z  M 608 457 L 611 457 L 612 458 L 613 458 L 617 462 L 617 463 L 618 464 L 618 465 L 619 466 L 619 470 L 617 472 L 615 472 L 614 471 L 614 467 L 613 466 L 613 465 L 610 462 L 607 462 L 605 460 Z  M 656 448 L 657 447 L 663 447 L 664 448 L 665 448 L 670 453 L 670 455 L 671 456 L 671 457 L 670 458 L 670 461 L 668 463 L 668 464 L 667 465 L 666 465 L 664 467 L 662 467 L 661 466 L 661 458 L 660 457 L 660 456 L 658 454 L 656 454 L 655 453 L 652 453 L 651 452 L 655 448 Z  M 624 412 L 626 414 L 626 418 L 627 419 L 627 421 L 628 422 L 628 424 L 629 425 L 629 426 L 630 427 L 630 428 L 632 430 L 632 431 L 633 432 L 635 430 L 637 430 L 638 431 L 638 433 L 639 434 L 639 442 L 640 443 L 640 451 L 641 452 L 641 455 L 642 456 L 642 458 L 643 459 L 643 460 L 644 461 L 644 462 L 648 466 L 648 467 L 649 467 L 651 469 L 653 469 L 654 470 L 656 470 L 657 471 L 665 471 L 666 470 L 669 470 L 670 469 L 671 469 L 672 468 L 673 468 L 674 467 L 675 467 L 676 466 L 677 466 L 679 464 L 680 464 L 682 462 L 683 462 L 684 461 L 685 461 L 686 460 L 687 460 L 688 459 L 689 459 L 690 458 L 692 458 L 693 457 L 696 457 L 697 456 L 700 456 L 701 455 L 704 455 L 705 454 L 708 454 L 710 456 L 709 457 L 709 458 L 710 457 L 713 457 L 714 456 L 716 456 L 717 455 L 719 455 L 720 454 L 722 454 L 723 453 L 724 453 L 725 452 L 726 452 L 727 451 L 728 451 L 729 450 L 731 452 L 730 453 L 730 454 L 727 457 L 727 458 L 718 467 L 724 467 L 725 468 L 725 470 L 723 472 L 722 472 L 718 476 L 717 476 L 716 477 L 715 477 L 712 480 L 711 480 L 710 481 L 709 481 L 710 481 L 711 482 L 712 482 L 713 483 L 713 484 L 711 486 L 710 486 L 708 488 L 707 488 L 706 489 L 705 489 L 704 490 L 703 490 L 702 491 L 701 491 L 700 492 L 699 492 L 698 493 L 697 493 L 696 494 L 695 494 L 694 495 L 693 495 L 692 496 L 690 496 L 689 497 L 688 497 L 687 498 L 686 498 L 685 499 L 683 499 L 682 500 L 681 500 L 680 501 L 677 501 L 676 502 L 675 502 L 674 503 L 671 503 L 670 504 L 666 504 L 665 505 L 661 505 L 660 506 L 645 506 L 644 505 L 641 505 L 640 504 L 638 504 L 637 503 L 636 503 L 635 502 L 634 502 L 633 501 L 633 500 L 632 499 L 635 496 L 637 496 L 638 497 L 640 497 L 641 498 L 649 498 L 650 497 L 652 497 L 654 495 L 655 495 L 659 491 L 659 487 L 658 488 L 657 488 L 657 489 L 654 492 L 653 492 L 652 493 L 651 493 L 650 494 L 640 494 L 639 493 L 637 493 L 633 489 L 633 488 L 634 487 L 634 486 L 637 483 L 637 482 L 638 481 L 638 480 L 636 478 L 631 478 L 630 479 L 627 479 L 626 480 L 624 480 L 624 481 L 623 482 L 624 483 L 624 484 L 627 487 L 628 487 L 631 490 L 631 494 L 629 496 L 624 496 L 619 491 L 619 490 L 618 489 L 618 487 L 617 486 L 617 481 L 618 480 L 618 479 L 619 478 L 619 476 L 620 475 L 620 474 L 621 473 L 621 471 L 622 470 L 622 466 L 621 465 L 621 462 L 620 461 L 620 460 L 619 459 L 619 457 L 618 456 L 618 455 L 616 453 L 616 452 L 615 451 L 615 450 L 614 449 L 614 448 L 613 447 L 613 446 L 612 445 L 612 443 L 611 442 L 611 437 L 610 436 L 610 433 L 611 432 L 612 432 L 615 435 L 615 436 L 615 432 L 616 431 L 616 426 L 617 425 L 617 424 L 618 423 L 618 421 L 619 420 L 619 419 L 620 418 L 620 417 L 621 416 L 621 415 Z  M 677 364 L 680 364 L 681 365 L 682 365 L 686 369 L 686 370 L 689 373 L 689 374 L 690 375 L 690 376 L 691 377 L 691 378 L 692 379 L 692 380 L 693 381 L 693 382 L 694 383 L 694 385 L 695 386 L 695 388 L 696 389 L 696 392 L 697 393 L 697 404 L 696 405 L 694 403 L 693 403 L 691 401 L 690 401 L 689 400 L 688 400 L 687 399 L 686 399 L 685 398 L 684 398 L 682 396 L 682 395 L 683 394 L 683 389 L 682 389 L 681 390 L 681 391 L 678 394 L 677 394 L 676 395 L 666 395 L 665 394 L 665 390 L 666 389 L 666 386 L 667 385 L 667 382 L 668 381 L 668 379 L 669 378 L 669 377 L 670 376 L 670 374 L 671 373 L 671 372 L 672 371 L 672 370 L 674 368 L 674 367 Z " fill="#001f2d" fill-rule="evenodd"/>
</svg>